<svg id="instagram-social-network-logo-of-photo-camera" xmlns="http://www.w3.org/2000/svg" width="30" height="30" viewBox="0 0 30 30">
  <path id="Path_7" data-name="Path 7" d="M3.851,0h22.3A3.759,3.759,0,0,1,30,3.85v22.3A3.759,3.759,0,0,1,26.15,30H3.851A3.759,3.759,0,0,1,0,26.15V3.85A3.759,3.759,0,0,1,3.851,0Zm18,3.333A1.354,1.354,0,0,0,20.5,4.684V7.917a1.354,1.354,0,0,0,1.35,1.351h3.391A1.355,1.355,0,0,0,26.6,7.917V4.684a1.354,1.354,0,0,0-1.351-1.351Zm4.756,9.354h-2.64a8.774,8.774,0,0,1,.385,2.574A9.184,9.184,0,0,1,15.029,24.3,9.183,9.183,0,0,1,5.7,15.26a8.76,8.76,0,0,1,.385-2.574H3.334V25.359a1.2,1.2,0,0,0,1.193,1.193H25.417a1.2,1.2,0,0,0,1.193-1.193V12.687ZM15.028,9.1A5.934,5.934,0,0,0,9,14.935a5.934,5.934,0,0,0,6.025,5.838,5.934,5.934,0,0,0,6.026-5.838A5.934,5.934,0,0,0,15.028,9.1Z" fill="#40223e"/>
</svg>
